# xmcd
#
# Track frame offsets:
#	150
#	17576
#	35043
#	53780
#	68294
#	83646
#	97605
#	111986
#	129756
#	142860
#
# Disc length: 2183 seconds
#
# Revision: 1
# Processed by: cddbd v1.5.2PL0 Copyright (c) Steve Scherf et al.
# Submitted via: audiograbber 1.83.01
#
DISCID=6c08850a
DTITLE=Chuck Ragan - Till Midnight
DYEAR=2014
DGENRE=Rock
TTITLE0=Something May Catch Fire
TTITLE1=Vagabond
TTITLE2=Non Typical
TTITLE3=Revved
TTITLE4=Bedroll Lullaby
TTITLE5=Gave My Heart Out
TTITLE6=Wake With You
TTITLE7=You and I Alone
TTITLE8=Whistleblowers Song
TTITLE9=For All We Care
EXTD=
EXTT0=
EXTT1=
EXTT2=
EXTT3=
EXTT4=
EXTT5=
EXTT6=
EXTT7=
EXTT8=
EXTT9=
PLAYORDER=
